<svg xmlns="http://www.w3.org/2000/svg" shape-rendering="geometricPrecision" text-rendering="geometricPrecision" image-rendering="optimizeQuality" fill-rule="evenodd" clip-rule="evenodd" viewBox="0 0 512 502.981"><path d="M168.981 251.902v-75.541c-27.806 10.694-45.562-19.993-26.111-41.351L313.714 1.655c2.215-2.037 5.628-2.248 8.083-.33l171.233 133.12c.27.206.512.417.748.688 21.681 23.303-1.199 54.078-27.484 41.647v106.289c-5.064.481-10.272 1.472-15.583 3.034a30.35 30.35 0 00-1.187.355V169.416c0-3.026-117.456-95.872-130.422-105.96-13.739 10.448-133.356 102.545-133.356 106.436v83.769a173.07 173.07 0 00-4.661-1.018 29.505 29.505 0 00-5.292-.582l-6.812-.159zM0 262.132h80.012l-4.551 196.777H0V262.132zm97.951 180.886l3.805-163.332 73.463 1.714c31.014 6.309 61.765 23.918 92.454 44.255l57.061 1.329c25.793 2.157 38.71 28.649 13.219 45.265-20.359 14.204-46.733 12.76-73.731 9.703-18.635-1.354-20.038 23.709-.566 24.25 6.74.678 14.136-.731 20.554-.589 33.773.754 61.742-5.053 79.386-31.335l9.023-19.774 85.859-40.105c42.802-12.997 71.95 32.141 39.94 62.302C435.901 420 371.987 455.34 306.815 483.565c-47.5 27.398-94.312 25.34-140.509-3.273l-68.355-37.274zm244.674-251.445c-2.206 1.2-4.962.385-6.146-1.807a4.52 4.52 0 011.822-6.147c10.427-5.658 15.286-12.974 16.262-20.128.519-3.823-.074-7.658-1.51-11.213-1.467-3.599-3.792-6.872-6.739-9.509-5.733-5.124-13.774-7.821-22.174-5.732-3.405.844-6.353 2.547-8.93 4.948-2.741 2.546-5.11 5.88-7.184 9.819a4.538 4.538 0 01-6.117 1.911 4.539 4.539 0 01-1.911-6.118c2.548-4.828 5.524-8.975 9.05-12.263 3.689-3.421 7.968-5.881 12.946-7.11 11.552-2.858 22.557.786 30.377 7.777 3.97 3.555 7.124 7.983 9.11 12.87 1.999 4.933 2.814 10.354 2.058 15.849-1.348 9.805-7.628 19.64-20.914 26.853zm-34.747 35.799c-17.181-23.076-17.596-44.937 3.258-65.259l-15.018-8.294c-12.027-4.68-34.096 29.815-25.565 39.028l11.701 17.359-2.414 5.036c-.667 1.495-.015 2.548 1.615 3.273l1.584.43-24.676 54.478 6.161 13.136 12.322-3.628 3.17-6.161-3.036-5.688 6.694-1.436 1.555-3.022-3.494-5.333 2.296-4.458 6.68-.844 2.176-4.221-3.732-4.873 2.385-4.621 6.812-1.111 3.512-11.939 1.571.858c2.725 1.659 4.132.593 4.443-2.71zm32.333 14.47l1.228 11.155-6.295 2.488-1.318 4.933 4.592 3.895-1.2 4.488-6.221 2.192-1.273 4.74 4.457 4.369-.859 3.214-6.116 2.769 4.087 4.815-1.761 6.562-.645.351a70.339 70.339 0 00-1.736-.167l-.007.094a29.266 29.266 0 00-1.835-.094l-11.474-.268-3.959-5.19 10.681-55.603-3.985-1.067a1.556 1.556 0 01-1.096-1.895l1.674-6.236c-12.056-9.138-18.025-24.957-13.878-40.465 5.331-19.92 25.445-31.948 45.382-27.475a14.668 14.668 0 01-.075 3.228c-.37 2.696-1.54 5.467-3.702 8.147-.296.355-.608.726-.934 1.082a13.653 13.653 0 00-14.055 10.101 13.611 13.611 0 00.296 8.043c.208.889.548 1.748.993 2.591a10.478 10.478 0 004.398 4.325 13.887 13.887 0 003.955 1.778c7.154 1.91 14.485-2.207 16.618-9.242a44.529 44.529 0 005.658-5.999c3.14-4.043 5.288-8.339 6.561-12.709 8.651 9.332 12.456 22.766 8.917 35.978-4.147 15.507-17.255 26.23-32.244 28.112l-1.674 6.235a1.557 1.557 0 01-1.896 1.097l-1.259-.372zM466.653 15.384v66.784l-51.411-33.923V15.384h51.411z"/></svg>