<svg id="Layer_1" data-name="Layer 1" xmlns="http://www.w3.org/2000/svg" viewBox="0 0 122.88 104.04"><defs><style>.cls-1{fill-rule:evenodd;}</style></defs><title>house-paint</title><path class="cls-1" d="M112.29,102.14a1.85,1.85,0,0,1-1.84,1.84H92.05l-.74-5.24h15.74V52.33a2,2,0,0,1,0-.35L61.62,18.58,15.27,52a1.91,1.91,0,0,1,.06.48V98.74H28l-.68,4.87c0,.12-.05.24-.07.37H11.93a1.84,1.84,0,0,1-1.83-1.84V54.38a8.14,8.14,0,0,1-5.57.26,6.52,6.52,0,0,1-3.07-2.15A6.7,6.7,0,0,1,.05,49a8.79,8.79,0,0,1,2.1-6.47h0a2.13,2.13,0,0,1,.3-.3L60.05.48A1.84,1.84,0,0,1,62.42.39l57.71,41.7h0a2.09,2.09,0,0,1,.22.2,8.27,8.27,0,0,1,2.34,7.62A7.09,7.09,0,0,1,121.09,53a7,7,0,0,1-2.85,1.92,7.67,7.67,0,0,1-5.95-.38v47.64ZM53.91,50.61H65.6a1.81,1.81,0,0,1,1.81,1.81V71.17a1.63,1.63,0,0,1-.06.45H82.89a2.18,2.18,0,0,1,2.18,2.17v3.08A2.18,2.18,0,0,1,82.89,79H35.71a2.17,2.17,0,0,1-2.17-2.17V73.79a2.17,2.17,0,0,1,2.17-2.17H52.17a1.74,1.74,0,0,1-.06-.45V52.42a1.81,1.81,0,0,1,1.8-1.81ZM38.43,81.89h42.4L84.27,104H74.59L70.15,92.29V104H60.1L55.66,92.29V104H46.51V92.29L42.06,104H35l3.41-22.15Zm18.2-27.83h6.25a1.27,1.27,0,0,1,1.26,1.28v1.81a1.26,1.26,0,0,1-1.26,1.26H56.63a1.26,1.26,0,0,1-1.25-1.26V55.32a1.23,1.23,0,0,1,1.25-1.26Z"/></svg>